<?xml version="1.0" standalone="no"?>
<!DOCTYPE svg PUBLIC "-//W3C//DTD SVG 20010904//EN"
 "http://www.w3.org/TR/2001/REC-SVG-20010904/DTD/svg10.dtd">
<svg version="1.0" xmlns="http://www.w3.org/2000/svg"
 width="500.000000pt" height="500.000000pt" viewBox="0 0 500.000000 500.000000"
 preserveAspectRatio="xMidYMid meet">

<g transform="translate(0.000000,500.000000) scale(0.100000,-0.100000)"
fill="#000000" stroke="none">
<path d="M2028 3922 l-57 -3 -6 -42 c-3 -23 -5 -58 -5 -77 0 -19 3 -136 6
-259 4 -195 2 -226 -11 -233 -17 -10 -20 -65 -5 -88 8 -12 10 -10 10 8 0 13 4
21 9 18 8 -5 21 -140 26 -262 1 -28 4 -55 7 -60 3 -5 8 -31 12 -59 4 -27 11
-74 17 -102 10 -52 11 -53 47 -53 20 0 53 5 73 10 38 11 86 46 71 52 -7 2 -21
364 -22 591 0 21 -5 37 -12 37 -6 0 -47 37 -90 82 -58 62 -78 89 -77 108 2 22
2 23 6 3 2 -12 20 -36 40 -55 19 -18 43 -42 52 -52 34 -41 74 -76 80 -71 8 9
1 158 -9 170 -24 30 -44 120 -49 225 -7 131 6 118 -113 112z m-1 -289 c-3 -10
-5 -4 -5 12 0 17 2 24 5 18 2 -7 2 -21 0 -30z m80 -45 c-3 -8 -6 -5 -6 6 -1
11 2 17 5 13 3 -3 4 -12 1 -19z"/>
<path d="M2164 3842 c3 -47 9 -88 11 -91 12 -12 18 15 18 90 0 72 -2 83 -18
85 -16 2 -17 -4 -11 -84z"/>
<path d="M2209 3914 c-7 -8 -9 -27 -5 -47 4 -17 1 -64 -5 -103 -11 -66 -10
-74 15 -135 23 -59 26 -79 26 -197 0 -136 10 -181 52 -223 15 -16 16 -16 21 2
4 14 -1 23 -17 31 -21 9 -24 19 -30 100 -3 50 -6 200 -6 333 0 233 -1 243 -20
248 -10 3 -24 -1 -31 -9z"/>
<path d="M2510 3922 l-63 -3 6 -97 c4 -53 13 -119 22 -146 19 -63 12 -72 -9
-10 -19 55 -40 207 -33 235 5 17 0 19 -41 19 l-47 0 1 -106 c1 -58 5 -108 8
-111 3 -4 6 -20 5 -37 -1 -24 -2 -27 -7 -11 -7 20 -7 20 -31 -2 -13 -13 -19
-23 -13 -23 7 0 12 -12 12 -26 0 -21 4 -24 19 -19 19 6 20 0 23 -109 3 -133 0
-150 -27 -154 -33 -6 -31 -12 4 -12 l33 0 -3 -199 -4 -200 35 22 c19 11 37 24
40 29 3 4 25 10 48 14 40 6 49 18 43 57 0 4 3 7 7 7 5 0 7 29 4 65 -3 54 -1
65 12 65 12 0 14 7 9 33 -3 17 -11 35 -17 39 -7 5 -11 49 -11 117 0 106 -1
110 -27 135 -16 14 -28 33 -28 42 0 16 2 16 15 -2 15 -18 15 -18 9 9 -10 42 5
32 27 -20 l21 -48 18 35 c22 40 27 33 6 -8 -16 -32 -19 -240 -3 -260 6 -8 8
-58 3 -142 l-7 -129 33 -17 c18 -9 51 -34 74 -55 27 -27 46 -38 57 -33 9 3 17
11 17 17 0 6 -3 8 -6 4 -4 -3 -19 0 -35 9 -29 14 -29 15 -29 108 l0 94 30 7
c17 4 30 11 30 17 0 6 6 6 15 -2 11 -9 14 -43 14 -167 0 -147 1 -156 22 -179
12 -13 26 -24 31 -24 4 0 8 38 8 85 0 56 4 85 11 85 8 0 8 4 0 14 -9 10 -8 15
4 20 13 5 15 -11 15 -113 l0 -119 46 -7 c25 -3 47 -5 49 -3 3 4 12 145 21 353
6 134 5 155 -11 185 -16 31 -16 33 -1 21 15 -13 16 9 14 320 l-3 334 -59 2
-58 1 6 -121 c3 -67 9 -180 12 -252 3 -71 8 -133 10 -137 3 -4 -2 -8 -10 -8
-21 0 -24 20 -25 140 -1 58 -6 155 -11 215 -5 61 -10 122 -10 138 0 25 -3 27
-44 27 -51 0 -57 -9 -45 -71 14 -75 11 -130 -8 -145 -17 -13 -17 -13 0 -14 14
0 17 -9 18 -47 1 -27 4 -59 8 -73 6 -22 10 -17 29 40 21 61 22 62 16 20 -3
-25 -14 -69 -25 -98 -10 -29 -19 -62 -19 -72 0 -14 -7 -20 -22 -21 -22 -1 -22
-1 2 -8 25 -7 25 -9 28 -121 1 -65 -2 -109 -6 -102 -7 10 -14 11 -36 1 -23
-11 -24 -14 -11 -22 14 -8 14 -11 -6 -28 -12 -10 -23 -19 -24 -19 -1 0 0 33 3
73 3 64 1 75 -18 92 -21 19 -21 19 -14 -1 3 -10 -5 -1 -19 22 -13 22 -34 55
-47 72 -44 60 -13 42 41 -23 l54 -65 6 33 c4 17 7 25 8 17 1 -13 2 -13 11 0 7
11 5 19 -7 27 -11 9 -14 22 -10 48 3 19 2 35 -4 35 -5 0 -9 16 -9 35 0 26 4
35 18 36 13 0 11 3 -6 10 -13 5 -20 14 -16 20 3 6 6 59 5 117 -2 94 -5 112
-32 169 -25 53 -33 62 -53 60 -13 -1 -51 -3 -86 -5z m387 -94 c-2 -13 -4 -3
-4 22 0 25 2 35 4 23 2 -13 2 -33 0 -45z m-350 -30 c-3 -8 -6 -5 -6 6 -1 11 2
17 5 13 3 -3 4 -12 1 -19z m30 -64 c0 -37 -4 -58 -7 -48 -5 14 -11 8 -25 -28
-9 -26 -26 -55 -37 -64 -17 -16 -18 -16 -12 -1 3 9 10 17 14 17 9 0 60 146 60
173 0 9 2 17 4 17 2 0 3 -30 3 -66z m309 -382 c-3 -9 -6 -44 -7 -77 -1 -33 -7
-63 -13 -67 -7 -5 -7 -8 -1 -8 6 0 9 -32 7 -82 -3 -110 -10 -150 -25 -145 -9
3 -11 32 -8 103 2 54 6 108 8 119 3 11 4 49 3 85 0 36 4 79 10 95 10 27 13 28
21 12 6 -9 8 -25 5 -35z m-459 -159 c-2 -21 -4 -6 -4 32 0 39 2 55 4 38 2 -18
2 -50 0 -70z m340 -29 c-3 -3 -12 -4 -19 -1 -8 3 -5 6 6 6 11 1 17 -2 13 -5z
m-323 -59 c-4 -8 -8 -15 -10 -15 -2 0 -4 7 -4 15 0 8 4 15 10 15 5 0 7 -7 4
-15z m-7 -72 c-3 -10 -5 -2 -5 17 0 19 2 27 5 18 2 -10 2 -26 0 -35z"/>
<path d="M2666 3908 c8 -30 16 -36 21 -20 3 6 12 12 21 12 11 0 6 6 -12 15
-37 20 -39 19 -30 -7z"/>
<path d="M1880 3913 c-14 -2 -42 -9 -63 -14 l-39 -10 3 -142 c2 -78 2 -204 1
-279 -2 -75 0 -148 3 -161 4 -14 2 -28 -5 -32 -7 -4 -8 -11 -1 -19 5 -6 11
-32 13 -56 l3 -45 12 39 c10 32 10 41 -2 53 -8 8 -15 20 -15 26 0 7 9 1 20
-13 21 -27 26 -60 11 -76 -19 -20 -40 -165 -42 -289 -1 -71 -1 -135 0 -142 2
-21 171 -53 171 -32 0 6 5 7 10 4 13 -8 13 6 -10 255 -16 167 -20 296 -20 578
0 284 -3 362 -12 361 -7 -1 -24 -4 -38 -6z m-19 -450 c-16 -92 -22 -190 -11
-173 5 8 10 11 10 5 0 -5 -5 -17 -10 -25 -7 -11 -10 -11 -10 -2 0 7 -5 10 -11
6 -8 -4 -9 1 -3 17 5 13 9 65 9 116 0 50 3 86 7 80 4 -6 10 1 14 16 12 49 16
21 5 -40z m60 -324 c13 -26 7 -24 -22 7 -17 19 -19 23 -6 18 10 -3 22 -15 28
-25z"/>
<path d="M3039 3843 c0 -43 0 -135 1 -205 1 -71 -3 -128 -8 -128 -12 0 -32
-46 -32 -73 1 -18 4 -16 20 13 l20 35 -5 -285 c-2 -157 -4 -311 -4 -342 0 -55
-1 -58 -25 -58 -23 0 -26 -4 -26 -32 0 -25 3 -29 12 -20 7 7 18 12 25 12 20 0
16 -38 -4 -43 -11 -3 -7 -5 10 -6 24 -1 27 3 27 29 0 17 5 30 13 30 7 0 8 3 2
8 -15 11 -7 494 8 489 15 -5 22 -157 7 -157 -5 0 -10 -7 -10 -15 0 -8 5 -15
10 -15 6 0 10 -32 10 -75 0 -53 -4 -75 -12 -75 -10 0 -10 -2 -1 -8 8 -5 12
-40 11 -107 -1 -80 2 -100 13 -98 78 9 87 13 93 46 3 17 6 62 7 100 3 103 19
80 19 -28 0 -52 2 -95 4 -95 3 0 16 4 30 10 20 7 26 16 26 40 0 17 5 30 13 30
9 0 9 2 -1 9 -17 10 -7 152 11 163 9 6 9 10 -1 17 -8 4 -14 19 -13 32 0 13 0
70 0 126 0 85 2 102 14 97 8 -3 22 2 31 11 9 9 16 12 16 6 0 -5 -9 -16 -20
-24 l-21 -14 21 -6 c21 -5 21 -9 5 -172 -2 -22 -4 -61 -4 -87 -1 -36 -5 -48
-18 -51 -16 -4 -16 -5 -1 -6 22 -1 28 -32 10 -53 -14 -16 -13 -18 3 -18 13 0
16 -6 13 -25 -3 -15 -1 -25 7 -25 21 0 45 36 45 68 0 21 6 32 18 35 16 4 16 5
-1 6 -16 1 -17 19 -18 234 -1 127 -1 268 -1 312 0 44 0 135 1 203 0 69 4 122
10 122 17 0 0 37 -22 47 -38 18 -41 14 -38 -45 7 -117 6 -132 -6 -132 -7 0
-10 -6 -7 -14 3 -7 -2 -16 -11 -20 -14 -5 -16 4 -14 69 1 41 -1 78 -4 82 -4 3
-7 28 -7 55 0 52 -9 60 -82 75 l-28 6 0 -99 c0 -107 7 -147 22 -138 5 3 4 -3
-3 -14 -10 -16 -10 -46 -1 -144 26 -270 26 -289 8 -282 -13 5 -16 20 -16 73 0
37 -3 70 -6 74 -6 6 -14 145 -20 386 -3 80 -6 146 -7 147 -1 0 -14 4 -28 7
-36 9 -37 1 -45 -266 -5 -150 -11 -216 -18 -214 -16 5 -13 416 3 426 8 5 8 14
-2 34 -20 44 -27 31 -28 -50z m188 -90 c-2 -21 -4 -4 -4 37 0 41 2 58 4 38 2
-21 2 -55 0 -75z m0 -65 c-3 -8 -6 -5 -6 6 -1 11 2 17 5 13 3 -3 4 -12 1 -19z
m101 -370 c-10 -6 -10 -8 1 -8 20 0 8 -10 -18 -15 -11 -2 -21 0 -21 6 0 5 6 9
13 10 10 0 10 2 0 6 -9 3 -13 26 -13 66 0 51 4 64 20 75 21 13 17 42 -6 42 -9
0 -14 12 -14 33 0 26 6 36 23 44 l22 10 3 -130 c2 -98 -1 -132 -10 -139z m-58
138 c0 -2 -8 -10 -17 -17 -16 -13 -17 -12 -4 4 13 16 21 21 21 13z m-189 -73
c1 -10 1 -22 0 -27 -2 -9 28 -5 64 9 11 4 3 -5 -17 -19 -21 -15 -38 -34 -38
-42 0 -9 -7 -14 -17 -12 -14 2 -18 13 -18 43 -1 22 1 46 3 53 6 18 22 15 23
-5z m139 -313 c0 -80 -4 -130 -10 -130 -5 0 -10 17 -10 38 0 22 -3 80 -6 130
-6 81 -5 92 10 92 14 0 16 -16 16 -130z m-91 -10 c-9 -43 -15 -56 -20 -43 -11
27 -11 71 0 55 7 -11 10 -10 15 3 3 9 6 26 6 37 0 12 3 18 6 15 4 -3 1 -34 -7
-67z"/>
<path d="M1680 3850 c-11 -11 -26 -20 -33 -20 -7 0 -23 -7 -35 -16 -18 -12
-22 -26 -24 -72 l-2 -57 -3 53 c-4 48 -6 51 -23 42 -19 -10 -20 -22 -19 -178
1 -230 -10 -549 -20 -595 -16 -66 52 -167 152 -226 l37 -23 0 25 c0 14 6 28
13 30 9 4 9 8 -2 15 -11 8 -11 10 0 15 10 4 10 6 2 6 -8 1 -13 14 -13 31 0 17
5 30 13 30 7 0 8 3 2 8 -5 4 -12 31 -14 61 -3 46 -1 53 13 48 9 -4 16 -2 16 3
0 6 -7 10 -15 10 -18 0 -20 36 -2 43 10 4 10 6 0 6 -9 1 -13 19 -13 54 0 28
-5 70 -11 92 -18 71 -28 158 -31 265 -2 78 -7 111 -20 130 -9 14 -19 50 -22
80 -4 38 -3 47 3 30 5 -14 10 -20 11 -15 2 13 31 -84 33 -112 1 -11 5 -19 9
-17 11 7 16 -28 23 -151 6 -119 13 -165 25 -165 15 0 18 41 4 54 -9 9 -14 36
-14 70 0 49 2 55 23 59 l22 4 -22 2 c-21 1 -22 5 -22 105 l0 104 30 -3 c34 -5
30 11 -7 25 -27 10 -34 50 -9 50 8 0 15 5 15 10 0 6 -7 10 -16 10 -14 0 -16 9
-12 50 6 56 -7 65 -42 30z m-18 -75 c-2 -19 -6 -35 -8 -35 -2 0 -4 16 -4 35 0
19 4 35 8 35 4 0 6 -16 4 -35z m-52 -230 c0 -5 -5 -3 -10 5 -5 8 -10 20 -10
25 0 6 5 3 10 -5 5 -8 10 -19 10 -25z m-23 -397 c-2 -13 -4 -5 -4 17 -1 22 1
32 4 23 2 -10 2 -28 0 -40z"/>
<path d="M2272 3850 c0 -14 2 -19 5 -12 2 6 2 18 0 25 -3 6 -5 1 -5 -13z"/>
<path d="M2690 3812 c0 -5 7 -9 15 -9 8 0 15 4 15 9 0 4 -7 8 -15 8 -8 0 -15
-4 -15 -8z"/>
<path d="M2332 3765 c0 -16 2 -22 5 -12 2 9 2 23 0 30 -3 6 -5 -1 -5 -18z"/>
<path d="M3420 3725 c0 -53 3 -66 11 -55 9 12 9 11 3 -5 -4 -11 -12 -60 -18
-110 -5 -49 -14 -93 -20 -97 -8 -6 -8 -10 0 -15 13 -10 12 9 17 -258 3 -121 7
-227 10 -235 3 -8 7 -26 9 -40 l4 -25 15 30 c9 17 14 37 12 46 -2 9 0 34 5 57
5 22 7 44 3 47 -3 4 -6 165 -6 358 0 306 -2 352 -15 352 -8 0 -18 5 -22 10 -4
6 -8 -21 -8 -60z m27 -27 c-3 -8 -6 -5 -6 6 -1 11 2 17 5 13 3 -3 4 -12 1 -19z"/>
<path d="M3485 3749 c-2 -8 -1 -63 4 -124 7 -96 8 -322 1 -440 -2 -22 -2 -65
0 -95 l2 -55 14 80 c8 44 16 141 20 215 3 74 7 141 9 148 10 27 24 9 28 -35 3
-27 4 16 3 94 -1 125 -4 145 -20 160 -16 15 -18 16 -13 2 3 -9 8 -57 12 -108
6 -70 5 -91 -5 -91 -9 0 -10 12 -5 46 4 28 3 49 -3 53 -6 3 -13 37 -16 75 -5
68 -20 104 -31 75z"/>
<path d="M1483 3731 c-21 -18 -23 -27 -22 -118 1 -93 1 -97 15 -68 12 24 14
25 8 5 -3 -14 -9 -76 -11 -137 -4 -94 -8 -113 -21 -113 -8 0 -12 -3 -8 -7 4
-5 13 -8 19 -8 7 0 10 -25 8 -72 -2 -78 15 -167 29 -143 14 27 21 171 19 379
-2 113 -2 227 -2 254 2 52 -2 55 -34 28z"/>
<path d="M2997 3649 c-4 -15 -2 -19 10 -15 8 3 17 6 19 6 2 0 4 7 4 15 0 23
-27 18 -33 -6z"/>
<path d="M1424 3636 c-3 -8 -4 -23 -1 -33 3 -12 5 -9 6 9 0 14 7 29 14 31 9 4
9 6 -1 6 -7 1 -15 -5 -18 -13z"/>
<path d="M1340 3545 c0 -8 -7 -15 -15 -15 -17 0 -19 -44 -9 -149 5 -45 11 -61
20 -57 7 3 14 0 16 -6 3 -7 12 -9 22 -5 15 6 17 20 15 104 -1 67 -6 105 -17
120 -16 26 -32 30 -32 8z"/>
<path d="M3620 3533 c-7 -16 -15 -66 -18 -113 -3 -70 -1 -88 11 -99 28 -23 58
17 64 87 6 68 -3 136 -18 127 -5 -4 -9 1 -9 9 0 25 -16 19 -30 -11z"/>
<path d="M2293 3473 c-25 -9 -13 -23 17 -21 17 1 30 5 30 9 0 9 -32 17 -47 12z"/>
<path d="M3542 3420 c0 -19 2 -27 5 -17 2 9 2 25 0 35 -3 9 -5 1 -5 -18z"/>
<path d="M2295 3380 c3 -5 17 -10 31 -10 13 0 24 5 24 10 0 6 -14 10 -31 10
-17 0 -28 -4 -24 -10z"/>
<path d="M3551 3344 c0 -11 3 -14 6 -6 3 7 2 16 -1 19 -3 4 -6 -2 -5 -13z"/>
<path d="M2241 3195 c0 -79 16 -326 22 -332 7 -7 57 16 57 26 0 6 -12 16 -27
23 l-28 14 4 140 c3 114 0 146 -12 170 -16 29 -16 28 -16 -41z"/>
<path d="M1950 3140 c0 -5 5 -10 10 -10 6 0 10 5 10 10 0 6 -4 10 -10 10 -5 0
-10 -4 -10 -10z"/>
<path d="M2720 3065 c0 -9 5 -15 11 -13 6 2 11 8 11 13 0 5 -5 11 -11 13 -6 2
-11 -4 -11 -13z"/>
<path d="M2342 3030 c0 -14 2 -19 5 -12 2 6 2 18 0 25 -3 6 -5 1 -5 -13z"/>
<path d="M2222 2948 c-2 -73 1 -88 13 -88 8 0 15 5 15 10 0 6 -4 10 -10 10 -5
0 -11 35 -13 78 l-3 77 -2 -87z"/>
<path d="M2995 2939 c-4 -6 -5 -12 -2 -15 2 -3 7 2 10 11 7 17 1 20 -8 4z"/>
<path d="M1337 2928 c-7 -19 4 -121 14 -132 10 -11 12 11 9 84 -2 46 -14 72
-23 48z"/>
<path d="M3636 2928 c-13 -42 -13 -92 -1 -121 14 -31 14 -29 15 51 0 76 -5
100 -14 70z"/>
<path d="M2740 2840 c0 -5 5 -10 11 -10 5 0 7 5 4 10 -3 6 -8 10 -11 10 -2 0
-4 -4 -4 -10z"/>
<path d="M2220 2819 c0 -10 27 -19 34 -12 12 12 5 22 -14 20 -11 -1 -20 -4
-20 -8z"/>
<path d="M1447 2763 c-2 -5 0 -19 4 -33 7 -23 7 -22 6 8 -1 33 -3 37 -10 25z"/>
<path d="M3528 2740 c-3 -16 -1 -30 4 -30 4 0 8 14 8 30 0 17 -2 30 -4 30 -2
0 -6 -13 -8 -30z"/>
<path d="M3631 2744 c0 -11 3 -14 6 -6 3 7 2 16 -1 19 -3 4 -6 -2 -5 -13z"/>
<path d="M1480 2720 c0 -14 7 -20 22 -20 20 0 21 1 3 20 -10 11 -20 20 -22 20
-1 0 -3 -9 -3 -20z"/>
<path d="M3485 2720 c-18 -19 -17 -20 3 -20 15 0 22 6 22 20 0 11 -2 20 -3 20
-2 0 -12 -9 -22 -20z"/>
<path d="M1606 2573 c-3 -3 -6 -33 -6 -65 l0 -58 50 0 c39 0 51 4 60 20 6 11
7 26 3 33 -4 6 -6 22 -5 34 2 11 -2 24 -8 28 -16 10 -86 16 -94 8z m74 -32 c0
-9 -24 -21 -41 -21 -5 0 -9 7 -9 15 0 9 9 15 25 15 14 0 25 -4 25 -9z m1 -56
c0 -5 -12 -11 -26 -13 -18 -2 -25 1 -25 13 0 12 7 15 25 13 14 -2 26 -7 26
-13z"/>
<path d="M1807 2573 c-4 -3 -7 -33 -7 -65 0 -45 3 -58 15 -58 12 0 15 14 15
65 0 60 -6 75 -23 58z"/>
<path d="M1926 2573 c-3 -3 -6 -33 -6 -65 0 -45 3 -58 15 -58 8 0 15 7 15 15
0 8 6 15 14 15 7 0 19 -7 26 -15 7 -8 19 -15 27 -15 11 0 11 4 2 21 -8 15 -8
24 0 32 15 15 14 42 -1 55 -16 13 -83 24 -92 15z m74 -43 c0 -15 -7 -20 -25
-20 -18 0 -25 5 -25 20 0 15 7 20 25 20 18 0 25 -5 25 -20z"/>
<path d="M2150 2573 c-41 -15 -54 -78 -21 -107 22 -20 82 -18 89 3 3 10 -3 12
-25 7 -35 -8 -56 11 -51 46 3 20 9 23 41 22 41 -1 52 20 15 30 -26 6 -27 6
-48 -1z"/>
<path d="M2310 2516 c0 -52 3 -66 15 -66 9 0 15 9 15 25 0 21 5 25 31 25 22 0
30 -4 26 -13 -6 -17 8 -41 19 -34 14 8 11 120 -3 124 -8 3 -13 -5 -13 -21 0
-22 -4 -26 -29 -26 -23 0 -30 5 -33 22 -2 12 -9 23 -15 26 -10 3 -13 -14 -13
-62z"/>
<path d="M2511 2568 c0 -7 8 -35 18 -63 22 -62 45 -69 61 -21 15 45 26 46 34
1 11 -56 38 -47 59 20 20 64 21 75 7 75 -5 0 -15 -18 -21 -40 -15 -49 -26 -51
-35 -6 -9 52 -32 54 -52 5 l-16 -42 -18 42 c-16 39 -39 56 -37 29z"/>
<path d="M2806 2559 c-31 -25 -34 -61 -6 -89 20 -20 65 -26 87 -12 19 12 31
55 22 80 -7 19 -44 42 -68 42 -5 0 -20 -9 -35 -21z m74 -24 c28 -34 -26 -84
-57 -52 -23 23 -9 67 21 67 13 0 29 -7 36 -15z"/>
<path d="M3014 2554 c-43 -42 -15 -104 48 -104 33 0 68 31 68 60 0 27 -43 70
-70 70 -11 0 -32 -11 -46 -26z m74 -16 c32 -32 -18 -87 -53 -58 -28 23 -12 70
25 70 9 0 21 -5 28 -12z"/>
<path d="M3223 2573 c-9 -3 -13 -26 -13 -64 l0 -59 43 0 c72 0 109 52 70 98
-18 20 -77 35 -100 25z m75 -35 c18 -18 14 -46 -7 -58 -38 -20 -51 -13 -51 30
0 35 3 40 23 40 13 0 28 -5 35 -12z"/>
<path d="M1750 2295 c0 -21 55 -105 69 -105 3 0 4 25 3 55 l-4 55 -34 0 c-19
0 -34 -2 -34 -5z"/>
<path d="M1852 2230 c3 -55 9 -73 24 -85 32 -24 36 -18 30 48 -3 34 -6 72 -7
85 -1 16 -7 22 -26 22 -24 0 -25 -1 -21 -70z"/>
<path d="M1932 2210 c2 -49 7 -92 10 -96 19 -18 28 15 28 97 0 84 -1 89 -21
89 -21 0 -21 -4 -17 -90z"/>
<path d="M2004 2260 c5 -31 3 -42 -9 -46 -18 -7 -19 -24 -2 -48 12 -17 17 -12
50 52 20 38 37 73 37 76 0 3 -19 6 -41 6 l-42 0 7 -40z"/>
<path d="M2930 2296 c0 -6 32 -75 58 -124 19 -36 26 -41 38 -32 8 7 14 20 13
29 0 12 -2 11 -9 -4 -6 -14 -9 5 -9 58 l-1 77 -45 0 c-25 0 -45 -2 -45 -4z"/>
<path d="M3089 2213 c4 -80 5 -84 12 -43 12 72 11 130 -3 130 -10 0 -12 -22
-9 -87z"/>
<path d="M3136 2233 c4 -38 8 -70 11 -72 2 -3 19 11 38 29 28 27 35 42 35 72
l0 38 -45 0 -46 0 7 -67z"/>
<path d="M1612 2188 l3 -93 60 -80 c60 -80 198 -225 214 -225 9 0 -40 123 -74
190 -9 17 -44 70 -79 118 -35 48 -75 108 -91 135 -15 26 -29 47 -32 47 -2 0
-3 -42 -1 -92z"/>
<path d="M3360 2259 c0 -6 -26 -48 -57 -92 -116 -167 -132 -194 -167 -281 -20
-49 -34 -91 -31 -94 14 -14 216 202 251 269 8 16 14 43 15 61 0 22 3 27 7 16
4 -10 7 16 7 57 0 53 -4 75 -12 75 -7 0 -13 -5 -13 -11z"/>
<path d="M3060 2249 c0 -5 5 -7 10 -4 6 3 10 8 10 11 0 2 -4 4 -10 4 -5 0 -10
-5 -10 -11z"/>
<path d="M2377 2083 c-51 -42 -71 -73 -49 -73 11 0 52 28 85 58 15 14 27 21
27 15 0 -6 -20 -26 -44 -44 -37 -29 -43 -38 -39 -61 4 -20 -1 -30 -21 -43 -27
-18 -35 -45 -13 -45 7 0 29 11 50 25 51 35 47 22 -5 -15 -24 -18 -34 -30 -25
-30 25 0 21 -15 -8 -34 -26 -17 -30 -32 -16 -55 7 -11 14 -10 37 5 16 10 39
29 52 42 12 14 25 23 28 20 3 -4 -23 -30 -58 -58 -73 -61 -82 -73 -73 -100 9
-27 32 -25 80 6 l40 25 -40 -35 c-22 -20 -48 -38 -57 -42 -19 -6 -22 -21 -12
-48 8 -20 27 -20 66 0 44 23 25 -1 -22 -27 -34 -19 -37 -24 -23 -34 14 -11 14
-14 -2 -38 -9 -14 -14 -31 -10 -37 12 -19 40 -10 87 28 l48 37 -3 292 c-1 195
-6 296 -13 303 -8 8 -27 -2 -67 -37z"/>
<path d="M2563 2088 c-4 -18 -6 -150 -5 -293 l4 -260 46 -42 c26 -23 54 -41
62 -40 19 3 25 44 9 63 -10 13 -10 17 2 25 12 8 12 10 -1 18 -67 40 -90 56
-90 63 0 4 16 -4 36 -17 46 -31 70 -32 78 -2 5 17 -2 28 -31 52 -70 56 -90 78
-41 45 86 -59 111 -4 33 73 -49 50 -63 78 -16 33 18 -17 36 -26 45 -23 23 9
20 23 -11 52 -22 20 -25 27 -14 34 11 7 6 16 -20 41 l-34 32 38 -28 c29 -20
41 -24 49 -16 9 9 4 20 -20 45 -23 24 -29 36 -21 44 7 7 -3 24 -38 58 -36 36
-40 42 -16 26 18 -12 35 -26 38 -31 3 -6 15 -15 26 -20 16 -9 19 -7 19 8 0 16
-93 92 -112 92 -4 0 -10 -15 -15 -32z m32 -118 c10 -11 16 -20 13 -20 -3 0
-13 9 -23 20 -10 11 -16 20 -13 20 3 0 13 -9 23 -20z m10 -121 c11 -16 1 -19
-13 -3 -7 8 -8 14 -3 14 5 0 13 -5 16 -11z"/>
<path d="M2006 1947 c3 -10 9 -15 12 -12 3 3 0 11 -7 18 -10 9 -11 8 -5 -6z"/>
<path d="M2081 1814 c0 -11 3 -14 6 -6 3 7 2 16 -1 19 -3 4 -6 -2 -5 -13z"/>
<path d="M2190 1600 c0 -69 10 -130 21 -130 11 0 -1 162 -12 175 -5 5 -9 -14
-9 -45z"/>
<path d="M2801 1558 c2 -83 2 -88 9 -43 12 72 12 135 0 135 -6 0 -9 -37 -9
-92z"/>
</g>
</svg>
